<?xml version="1.0" encoding="UTF-8" standalone="no"?>
<svg width="20px" height="19px" viewBox="0 0 20 19" version="1.1" xmlns="http://www.w3.org/2000/svg" xmlns:xlink="http://www.w3.org/1999/xlink">
    <!-- Generator: Sketch 3.7.2 (28276) - http://www.bohemiancoding.com/sketch -->
    <title>work 2</title>
    <desc>Created with Sketch.</desc>
    <defs></defs>
    <g id="Anasayfa" stroke="none" stroke-width="1" fill="none" fill-rule="evenodd">
        <g id="Main-Screen" transform="translate(-508.000000, -29.000000)" fill="#000000">
            <g id="Top-Bar">
                <g id="work-2" transform="translate(508.000000, 29.000000)">
                    <path d="M18,4 L14,4 L14,2 L12,0 L8,0 L6,2 L6,4 L2,4 C0.9,4 0,4.9 0,6 L0,17 C0,18.1 0.9,19 2,19 L18,19 C19.1,19 20,18.1 20,17 L20,6 C20,4.9 19.1,4 18,4 L18,4 Z M12,4 L8,4 L8,2 L12,2 L12,4 L12,4 Z" id="Shape"></path>
                </g>
            </g>
        </g>
    </g>
</svg>